<svg width="18" height="20" viewBox="0 0 18 20" fill="none" xmlns="http://www.w3.org/2000/svg">
<path fill-rule="evenodd" clip-rule="evenodd" d="M3.12051 0H9.81393L15.4782 5.91241V17.3942C15.4782 18.8321 14.3176 20 12.8796 20H3.12051C1.68985 20 0.521973 18.8321 0.521973 17.3942V2.59853C0.521947 1.16788 1.68985 0 3.12051 0Z" fill="#00733B"/>
<g filter="url(#filter0_d_449_8314)">
<path fill-rule="evenodd" clip-rule="evenodd" d="M9.80597 0V5.86131H15.4775L9.80597 0Z" fill="#E1E1E1"/>
</g>
<path d="M6.74123 14.5621H5.77043L5.10621 13.4454L4.44197 14.5621H3.46387L4.61716 12.6205L3.60257 10.9344H4.58065L5.10619 11.8103L5.62442 10.9344H6.60252L5.59521 12.6278L6.74123 14.5621ZM7.08429 14.5621V10.9344H8.01129V13.7738H9.58794V14.5621H7.08429V14.5621ZM11.1208 14.6059C10.7558 14.6059 10.4347 14.4891 10.1573 14.2629C9.88721 14.0439 9.73395 13.7665 9.71204 13.4381L10.5077 13.2045C10.5296 13.3797 10.6026 13.533 10.7267 13.6497C10.858 13.7665 11.004 13.8249 11.1646 13.8249C11.296 13.8249 11.4055 13.7957 11.4931 13.7373C11.5733 13.6789 11.6171 13.5987 11.6171 13.5038C11.6171 13.4235 11.5806 13.3578 11.5149 13.2994C11.4492 13.2483 11.3617 13.2045 11.2595 13.168C11.1573 13.1315 11.0332 13.095 10.9091 13.0658C10.7777 13.0293 10.6463 12.9855 10.5222 12.9271C10.3909 12.876 10.2741 12.8103 10.1719 12.7301C10.0624 12.657 9.9821 12.5476 9.9164 12.4089C9.85069 12.2775 9.8142 12.1169 9.8142 11.9344C9.8142 11.6352 9.93828 11.387 10.1938 11.1899C10.4492 10.9855 10.7558 10.8906 11.1135 10.8906C11.4711 10.8906 11.785 10.9782 12.0478 11.1461C12.3105 11.3213 12.4784 11.5476 12.5441 11.8249L11.712 12.1753C11.6755 12.022 11.6025 11.8979 11.5003 11.803C11.3981 11.7155 11.2667 11.6644 11.1135 11.6644C10.9967 11.6644 10.9091 11.6936 10.8361 11.7374C10.7704 11.7812 10.7412 11.8469 10.7412 11.9271C10.7412 12.0002 10.785 12.0658 10.8726 12.1169C10.9602 12.1607 11.077 12.1972 11.2083 12.2191C11.3397 12.241 11.4857 12.2775 11.639 12.3286C11.7996 12.387 11.9383 12.4454 12.077 12.5257C12.2083 12.5987 12.3178 12.7228 12.4054 12.8834C12.5003 13.0513 12.5441 13.2483 12.5441 13.4746C12.5441 13.8104 12.4127 14.0878 12.1499 14.2921C11.8871 14.4965 11.5442 14.6059 11.1208 14.6059Z" fill="white"/>
<defs>
<filter id="filter0_d_449_8314" x="6.72738" y="-1.5393" width="11.8287" height="12.0185" filterUnits="userSpaceOnUse" color-interpolation-filters="sRGB">
<feFlood flood-opacity="0" result="BackgroundImageFix"/>
<feColorMatrix in="SourceAlpha" type="matrix" values="0 0 0 0 0 0 0 0 0 0 0 0 0 0 0 0 0 0 127 0" result="hardAlpha"/>
<feOffset dy="1.5393"/>
<feGaussianBlur stdDeviation="1.5393"/>
<feComposite in2="hardAlpha" operator="out"/>
<feColorMatrix type="matrix" values="0 0 0 0 0 0 0 0 0 0 0 0 0 0 0 0 0 0 0.1 0"/>
<feBlend mode="normal" in2="BackgroundImageFix" result="effect1_dropShadow_449_8314"/>
<feBlend mode="normal" in="SourceGraphic" in2="effect1_dropShadow_449_8314" result="shape"/>
</filter>
</defs>
</svg>
