<svg width="20" height="20" viewBox="0 0 20 20" fill="none" xmlns="http://www.w3.org/2000/svg">
<g clip-path="url(#clip0_449_8321)">
<path fill-rule="evenodd" clip-rule="evenodd" d="M5.12456 0H11.8112L17.4784 5.90705V17.3963C17.4784 18.8356 16.314 20 14.8797 20H5.12456C3.68529 20 2.52087 18.8356 2.52087 17.3963V2.60369C2.52085 1.16441 3.68526 0 5.12456 0Z" fill="#E5252A"/>
<g filter="url(#filter0_d_449_8321)">
<path fill-rule="evenodd" clip-rule="evenodd" d="M11.8071 0V5.86207H17.4793L11.8071 0Z" fill="#E1E1E1"/>
</g>
<path d="M5.41547 14.9227V11.2695H6.96969C7.3545 11.2695 7.65936 11.3745 7.88924 11.5894C8.11912 11.7993 8.23408 12.0841 8.23408 12.4389C8.23408 12.7938 8.11912 13.0786 7.88924 13.2885C7.65936 13.5034 7.3545 13.6084 6.96969 13.6084H6.35V14.9227H5.41547ZM6.35 12.8138H6.86475C7.00467 12.8138 7.11462 12.7838 7.18959 12.7138C7.26454 12.6489 7.30455 12.5589 7.30455 12.439C7.30455 12.319 7.26457 12.2291 7.18959 12.1641C7.11464 12.0941 7.00469 12.0642 6.86475 12.0642H6.35V12.8138ZM8.61886 14.9227V11.2695H9.91321C10.1681 11.2695 10.408 11.3045 10.6329 11.3795C10.8577 11.4544 11.0626 11.5594 11.2425 11.7043C11.4225 11.8442 11.5674 12.0341 11.6723 12.274C11.7723 12.5139 11.8273 12.7888 11.8273 13.0986C11.8273 13.4035 11.7723 13.6783 11.6723 13.9182C11.5674 14.1581 11.4225 14.348 11.2425 14.4879C11.0626 14.6328 10.8577 14.7378 10.6329 14.8128C10.408 14.8877 10.1681 14.9227 9.91321 14.9227H8.61886ZM9.53341 14.1281H9.80326C9.94819 14.1281 10.0831 14.1131 10.2081 14.0781C10.328 14.0432 10.4429 13.9882 10.5529 13.9132C10.6578 13.8383 10.7428 13.7333 10.8028 13.5934C10.8627 13.4535 10.8927 13.2885 10.8927 13.0986C10.8927 12.9037 10.8627 12.7388 10.8028 12.5989C10.7428 12.459 10.6578 12.354 10.5529 12.279C10.4429 12.2041 10.328 12.1491 10.2081 12.1141C10.0831 12.0792 9.94819 12.0641 9.80326 12.0641H9.53341V14.1281ZM12.297 14.9227V11.2695H14.8957V12.0641H13.2316V12.6488H14.5609V13.4385H13.2316V14.9227H12.297Z" fill="white"/>
</g>
<defs>
<filter id="filter0_d_449_8321" x="8.72854" y="-1.5393" width="11.8294" height="12.0192" filterUnits="userSpaceOnUse" color-interpolation-filters="sRGB">
<feFlood flood-opacity="0" result="BackgroundImageFix"/>
<feColorMatrix in="SourceAlpha" type="matrix" values="0 0 0 0 0 0 0 0 0 0 0 0 0 0 0 0 0 0 127 0" result="hardAlpha"/>
<feOffset dy="1.5393"/>
<feGaussianBlur stdDeviation="1.5393"/>
<feComposite in2="hardAlpha" operator="out"/>
<feColorMatrix type="matrix" values="0 0 0 0 0 0 0 0 0 0 0 0 0 0 0 0 0 0 0.1 0"/>
<feBlend mode="normal" in2="BackgroundImageFix" result="effect1_dropShadow_449_8321"/>
<feBlend mode="normal" in="SourceGraphic" in2="effect1_dropShadow_449_8321" result="shape"/>
</filter>
<clipPath id="clip0_449_8321">
<rect width="20" height="20" fill="white"/>
</clipPath>
</defs>
</svg>
