<svg width="20" height="20" viewBox="0 0 20 20" fill="none" xmlns="http://www.w3.org/2000/svg">
<path d="M6.52623 17.7899L6.09423 17.2147C5.71466 16.7093 4.90866 16.7501 4.58803 17.2907C4.13806 18.0497 2.91663 17.7472 2.91663 16.877V3.12321C2.91663 2.25292 4.13806 1.9505 4.58803 2.70938C4.90866 3.25011 5.71466 3.29082 6.09423 2.78545L6.52623 2.21027C7.07052 1.48558 8.20718 1.48558 8.75146 2.21027L8.81938 2.30072C9.39696 3.06965 10.603 3.06965 11.1805 2.30072L11.2485 2.21027C11.7927 1.48558 12.9294 1.48558 13.4737 2.21027L13.9057 2.78545C14.2853 3.29082 15.0913 3.25011 15.4119 2.70938C15.8619 1.9505 17.0833 2.25292 17.0833 3.1232V16.877C17.0833 17.7472 15.8619 18.0497 15.4119 17.2907C15.0913 16.7501 14.2853 16.7093 13.9057 17.2147L13.4737 17.7899C12.9294 18.5146 11.7927 18.5146 11.2485 17.7899L11.1805 17.6994C10.603 16.9305 9.39696 16.9305 8.81938 17.6994L8.75146 17.7899C8.20718 18.5146 7.07052 18.5146 6.52623 17.7899Z" stroke="black" stroke-width="1.25" stroke-linejoin="round"/>
<path d="M12.5 7.5L7.5 12.5" stroke="black" stroke-width="1.25" stroke-linecap="round" stroke-linejoin="round"/>
<path d="M12.5 12.5H12.4925M7.50748 7.5H7.5" stroke="black" stroke-width="1.25" stroke-linecap="round" stroke-linejoin="round"/>
</svg>
