<svg width="47" height="47" viewBox="0 0 47 47" fill="none" xmlns="http://www.w3.org/2000/svg">
<path d="M32.8149 21.3512C32.8149 20.6871 32.8149 20.3551 32.9148 20.0593C33.2053 19.1996 33.971 18.8659 34.738 18.5165C35.6004 18.1238 36.0314 17.9274 36.4586 17.8928C36.9437 17.8536 37.4295 17.9581 37.8441 18.1908C38.3937 18.4992 38.7769 19.0852 39.1693 19.5618C40.9816 21.7628 41.8875 22.8636 42.2191 24.0772C42.4867 25.0565 42.4867 26.0808 42.2191 27.0601C41.7356 28.8303 40.2078 30.3143 39.0769 31.6878C38.4985 32.3903 38.2092 32.7416 37.8441 32.9466C37.4295 33.1792 36.9437 33.2837 36.4586 33.2445C36.0314 33.2099 35.6004 33.0136 34.738 32.6208C33.971 32.2713 33.2053 31.9379 32.9148 31.078C32.8149 30.7822 32.8149 30.4503 32.8149 29.7862V21.3512Z" stroke="#E62C36" stroke-width="2"/>
<path d="M13.6049 21.3514C13.6049 20.5154 13.5814 19.7639 12.9055 19.1761C12.6596 18.9622 12.3337 18.8138 11.6818 18.5169C10.8195 18.1241 10.3883 17.9277 9.9611 17.8931C8.67933 17.7895 7.98972 18.6643 7.25054 19.5621C5.43833 21.7632 4.53223 22.8638 4.20067 24.0774C3.93311 25.0569 3.93311 26.0812 4.20067 27.0605C4.68425 28.8307 6.21204 30.3145 7.3429 31.6881C8.05574 32.5539 8.73669 33.3438 9.9611 33.2449C10.3883 33.2103 10.8195 33.0138 11.6818 32.6212C12.3337 32.3242 12.6596 32.1757 12.9055 31.9619C13.5814 31.3741 13.6049 30.6228 13.6049 29.7866V21.3514Z" stroke="#E62C36" stroke-width="2"/>
<path d="M9.76318 17.8852C9.76318 11.5197 15.7835 6.35938 23.21 6.35938C30.6365 6.35938 36.6569 11.5197 36.6569 17.8852" stroke="#E62C36" stroke-width="2" stroke-linecap="square" stroke-linejoin="round"/>
<path d="M36.6562 33.2529V34.7897C36.6562 38.1847 33.216 40.9368 28.9723 40.9368H25.1304" stroke="#E62C36" stroke-width="2" stroke-linecap="round" stroke-linejoin="round"/>
</svg>
