<svg width="47" height="47" viewBox="0 0 47 47" fill="none" xmlns="http://www.w3.org/2000/svg">
<path d="M26.5284 7.23712L29.909 14.0541C30.37 15.003 31.5993 15.9133 32.6366 16.0875L38.7637 17.114C42.6821 17.7724 43.6042 20.6387 40.7806 23.4661L36.0171 28.269C35.2103 29.0823 34.7687 30.651 35.0182 31.7744L36.3821 37.7198C37.4577 42.4258 34.9798 44.2463 30.8503 41.7867L25.1071 38.3589C24.07 37.7392 22.3605 37.7392 21.304 38.3589L15.561 41.7867C11.4505 44.2463 8.95353 42.4064 10.0292 37.7198L11.3929 31.7744C11.6426 30.651 11.2008 29.0823 10.3941 28.269L5.6306 23.4661C2.82628 20.6387 3.72905 17.7724 7.6474 17.114L13.7746 16.0875C14.7926 15.9133 16.0219 15.003 16.4829 14.0541L19.8634 7.23712C21.7074 3.53815 24.7037 3.53815 26.5284 7.23712Z" stroke="#E62C36" stroke-width="2" stroke-linecap="round" stroke-linejoin="round"/>
</svg>
