<svg width="12" height="13" viewBox="0 0 12 13" fill="none" xmlns="http://www.w3.org/2000/svg">
<g clip-path="url(#clip0_435_8607)">
<path d="M7.47602 11.274C7.28659 11.6988 7.16137 12.1599 7.1134 12.6434L11.1221 11.7815C11.3115 11.3567 11.4367 10.8956 11.4847 10.4121L7.47602 11.274Z" fill="#AEAEAE"/>
<path d="M11.122 9.19852C11.3115 8.77378 11.4367 8.31265 11.4846 7.82917L8.362 8.5009V7.20958L11.1219 6.61636C11.3114 6.19162 11.4366 5.73049 11.4846 5.24701L8.3619 5.91817V1.2742C7.88342 1.54593 7.45848 1.90763 7.11305 2.33428V6.18675L5.8642 6.45523V0.642578C5.38572 0.914214 4.96078 1.27601 4.61535 1.70266V6.72362L1.82103 7.3242C1.63161 7.74894 1.5063 8.21007 1.45823 8.69355L4.61535 8.01494V9.64112L1.23188 10.3683C1.04245 10.7931 0.917234 11.2542 0.869263 11.7377L4.41081 10.9765C4.69911 10.9158 4.94689 10.7434 5.10799 10.5062L5.75749 9.53224V9.53205C5.82492 9.43128 5.8642 9.30979 5.8642 9.17894V7.74646L7.11305 7.47797V10.0606L11.1219 9.19833L11.122 9.19852Z" fill="#AEAEAE"/>
</g>
<defs>
<clipPath id="clip0_435_8607">
<rect width="10.6154" height="12" fill="white" transform="translate(0.869507 0.642578)"/>
</clipPath>
</defs>
</svg>
