<svg width="18" height="21" viewBox="0 0 18 21" fill="none" xmlns="http://www.w3.org/2000/svg">
<g clip-path="url(#clip0_1035_6445)">
<path d="M11.0729 17.7916C10.757 18.5 10.5482 19.2687 10.4683 20.0749L17.1524 18.6378C17.4682 17.9295 17.6768 17.1606 17.757 16.3545L11.0729 17.7916Z" fill="#00A824"/>
<path d="M17.1526 14.3316C17.4685 13.6234 17.6772 12.8545 17.7572 12.0484L12.5505 13.1684V11.0153L17.1524 10.0261C17.4683 9.31791 17.6771 8.54902 17.7571 7.74286L12.5504 8.86196V1.11859C11.7525 1.57168 11.044 2.17478 10.468 2.88618V9.30978L8.38569 9.75745V0.0654297C7.58787 0.518355 6.87932 1.12162 6.30335 1.83302V10.205L1.64411 11.2064C1.32826 11.9146 1.11932 12.6835 1.03917 13.4896L6.30335 12.3581V15.0696L0.661755 16.2822C0.345901 16.9904 0.137116 17.7593 0.0571289 18.5654L5.96231 17.2962C6.44302 17.195 6.85618 16.9076 7.12479 16.512L8.20777 14.8881V14.8877C8.32019 14.7197 8.38569 14.5171 8.38569 14.299V11.9104L10.468 11.4628V15.7691L17.1524 14.3313L17.1526 14.3316Z" fill="#00A824"/>
</g>
<defs>
<clipPath id="clip0_1035_6445">
<rect width="17.7001" height="20.0088" fill="white" transform="translate(0.0571289 0.0654297)"/>
</clipPath>
</defs>
</svg>
