<svg width="382" height="63" viewBox="0 0 382 63" fill="none" xmlns="http://www.w3.org/2000/svg">
<path d="M48.3672 23.3545C53.5859 23.3867 69.1876 29.6738 81.4609 36.085C89.7735 40.4272 93.4229 44.6476 101.825 48.8135C121.052 58.3462 157.83 61.541 157.83 61.541C157.83 61.541 120.779 65.3635 96.7344 58.9961C76.5305 53.6457 63.4035 35.8017 43.2764 36.085C25.3628 36.3373 0.0188364 46.2602 0 46.2676L2.5459 43.7217C2.65159 43.6413 29.4901 23.238 48.3672 23.3545ZM150.192 0.446289C150.192 0.446289 186.222 1.10682 208.742 5.53711C229.11 9.5441 241.691 10.4103 259.655 20.8115C267.051 25.0937 278.697 31.747 278.713 31.7559H261.362C240.002 24.4994 230.103 20.4313 208.742 13.1748C181.409 8.47757 168.614 7.94053 150.192 10.6289C150.105 10.6424 135.954 12.8396 127.282 15.7197C120.111 18.1015 109.504 23.337 109.463 23.3574C109.556 23.4173 123.736 32.5099 132.373 36.085C145.363 41.4619 165.467 41.1768 165.467 41.1768L224.017 43.7217H323.296C323.296 43.7217 343.679 46.2714 356.39 48.8135C369.077 51.351 381.765 56.4181 381.846 56.4502C361.48 53.9045 325.842 48.8135 325.842 48.8135C303.996 45.8346 178.487 53.8856 178.195 53.9043C178.195 53.9043 129.827 55.7931 91.6426 36.085C84.0524 32.1673 73.8477 23.3785 73.8232 23.3574V15.7197C73.8232 15.7197 96.8695 8.53904 112.008 5.53711C126.729 2.61785 150.081 0.456551 150.192 0.446289Z" fill="#EE3338"/>
</svg>
